<svg width="13" height="21" viewBox="0 0 13 21" fill="none" xmlns="http://www.w3.org/2000/svg">
<path d="M11.7297 0.556356C12.0226 0.849368 12.1872 1.24672 12.1872 1.66104C12.1872 2.07536 12.0226 2.47272 11.7297 2.76573L3.9953 10.5001L11.7297 18.2345C12.0143 18.5292 12.1718 18.9239 12.1682 19.3335C12.1647 19.7432 12.0003 20.1351 11.7106 20.4248C11.4209 20.7145 11.029 20.8789 10.6194 20.8824C10.2097 20.886 9.81499 20.7285 9.5203 20.4439L0.681234 11.6048C0.38831 11.3118 0.223755 10.9144 0.223755 10.5001C0.223755 10.0858 0.38831 9.68843 0.681234 9.39542L9.5203 0.556356C9.81331 0.263432 10.2107 0.098877 10.625 0.098877C11.0393 0.098877 11.4367 0.263432 11.7297 0.556356Z" fill="black"/>
</svg>
