<?xml version="1.0" standalone="no"?><!DOCTYPE svg PUBLIC "-//W3C//DTD SVG 20010904//EN"
    "http://www.w3.org/TR/2001/REC-SVG-20010904/DTD/svg10.dtd">
<svg version="1.0" xmlns="http://www.w3.org/2000/svg" width="1280.000000pt" height="2068.000000pt"
    viewBox="0 0 1280.000000 2068.000000" preserveAspectRatio="xMidYMid meet">
    <metadata>
        Created by potrace 1.16, written by Peter Selinger 2001-2019
    </metadata>
    <g transform="translate(0.000000,2068.000000) scale(0.100000,-0.100000)" fill="#000000"
        stroke="none">
        <path d="M2184 20580 c-565 -60 -1041 -411 -1267 -935 -44 -102 -90 -270 -108
-393 -17 -122 -6 -412 20 -529 50 -227 138 -420 279 -613 37 -50 1358 -1378
3901 -3923 l3846 -3847 -3836 -3838 c-2923 -2923 -3852 -3858 -3902 -3927 -78
-106 -173 -285 -215 -406 -113 -321 -115 -680 -6 -1007 115 -347 358 -648 676
-837 152 -91 331 -156 523 -192 127 -24 407 -23 535 1 210 40 415 124 600 246
87 57 485 453 4556 4524 4294 4293 4464 4465 4533 4569 115 175 187 344 233
548 20 91 23 130 23 319 0 189 -3 228 -23 319 -46 204 -118 373 -233 548 -69
104 -242 278 -4513 4551 -3554 3556 -4462 4459 -4545 4523 -302 227 -702 338
-1077 299z" />
    </g>
</svg>
